<svg width="1281" height="640" viewBox="0 0 1281 640" fill="none" xmlns="http://www.w3.org/2000/svg">
<rect width="1280" height="640" fill="url(#paint0_linear_20_77)"/>
<path fill-rule="evenodd" clip-rule="evenodd" d="M501.397 640H1281V0L1141.4 0L501.397 640Z" fill="#1F2C5C"/>
<g clip-path="url(#clip0_20_77)">
<rect x="113" y="205.834" width="50" height="18" rx="4" stroke="white" stroke-width="2" stroke-dasharray="4 2"/>
<rect x="113" y="175.834" width="68" height="23" rx="4" stroke="white" stroke-width="2" stroke-dasharray="4 2"/>
<rect x="113" y="155.834" width="33" height="13" rx="4" stroke="white" stroke-width="2" stroke-dasharray="4 2"/>
</g>
<path d="M217.54 210.814C215.22 210.814 213.18 210.294 211.42 209.254C209.7 208.174 208.36 206.694 207.4 204.814C206.44 202.934 205.96 200.774 205.96 198.334V180.574H213.52V197.734C213.52 199.974 214.06 201.654 215.14 202.774C216.26 203.894 217.84 204.454 219.88 204.454C222.2 204.454 224 203.694 225.28 202.174C226.56 200.614 227.2 198.454 227.2 195.694V180.574H234.76V210.334H227.32V206.434H226.24C225.76 207.434 224.86 208.414 223.54 209.374C222.22 210.334 220.22 210.814 217.54 210.814ZM242.373 210.334V180.574H249.813V184.474H250.893C251.373 183.434 252.273 182.454 253.593 181.534C254.913 180.574 256.913 180.094 259.593 180.094C261.913 180.094 263.933 180.634 265.653 181.714C267.413 182.754 268.773 184.214 269.733 186.094C270.693 187.934 271.173 190.094 271.173 192.574V210.334H263.613V193.174C263.613 190.934 263.053 189.254 261.933 188.134C260.853 187.014 259.293 186.454 257.253 186.454C254.933 186.454 253.133 187.234 251.853 188.794C250.573 190.314 249.933 192.454 249.933 195.214V210.334H242.373ZM290.905 211.174C287.025 211.174 283.845 210.334 281.365 208.654C278.885 206.974 277.385 204.574 276.865 201.454L283.825 199.654C284.105 201.054 284.565 202.154 285.205 202.954C285.885 203.754 286.705 204.334 287.665 204.694C288.665 205.014 289.745 205.174 290.905 205.174C292.665 205.174 293.965 204.874 294.805 204.274C295.645 203.634 296.065 202.854 296.065 201.934C296.065 201.014 295.665 200.314 294.865 199.834C294.065 199.314 292.785 198.894 291.025 198.574L289.345 198.274C287.265 197.874 285.365 197.334 283.645 196.654C281.925 195.934 280.545 194.954 279.505 193.714C278.465 192.474 277.945 190.874 277.945 188.914C277.945 185.954 279.025 183.694 281.185 182.134C283.345 180.534 286.185 179.734 289.705 179.734C293.025 179.734 295.785 180.474 297.985 181.954C300.185 183.434 301.625 185.374 302.305 187.774L295.285 189.934C294.965 188.414 294.305 187.334 293.305 186.694C292.345 186.054 291.145 185.734 289.705 185.734C288.265 185.734 287.165 185.994 286.405 186.514C285.645 186.994 285.265 187.674 285.265 188.554C285.265 189.514 285.665 190.234 286.465 190.714C287.265 191.154 288.345 191.494 289.705 191.734L291.385 192.034C293.625 192.434 295.645 192.974 297.445 193.654C299.285 194.294 300.725 195.234 301.765 196.474C302.845 197.674 303.385 199.314 303.385 201.394C303.385 204.514 302.245 206.934 299.965 208.654C297.725 210.334 294.705 211.174 290.905 211.174ZM320.024 210.334C318.064 210.334 316.464 209.734 315.224 208.534C314.024 207.294 313.424 205.654 313.424 203.614V186.814H305.984V180.574H313.424V171.334H320.984V180.574H329.144V186.814H320.984V202.294C320.984 203.494 321.544 204.094 322.664 204.094H328.424V210.334H320.024ZM338.428 222.334V215.734H354.628C355.748 215.734 356.308 215.134 356.308 213.934V206.434H355.228C354.908 207.114 354.408 207.794 353.728 208.474C353.048 209.154 352.128 209.714 350.968 210.154C349.808 210.594 348.328 210.814 346.528 210.814C344.208 210.814 342.168 210.294 340.408 209.254C338.688 208.174 337.348 206.694 336.388 204.814C335.428 202.934 334.948 200.774 334.948 198.334V180.574H342.508V197.734C342.508 199.974 343.048 201.654 344.128 202.774C345.248 203.894 346.828 204.454 348.868 204.454C351.188 204.454 352.988 203.694 354.268 202.174C355.548 200.614 356.188 198.454 356.188 195.694V180.574H363.748V215.614C363.748 217.654 363.148 219.274 361.948 220.474C360.748 221.714 359.148 222.334 357.148 222.334H338.428ZM371.36 210.334V168.334H378.92V210.334H371.36ZM400.058 211.174C397.098 211.174 394.478 210.554 392.198 209.314C389.958 208.034 388.198 206.254 386.918 203.974C385.678 201.654 385.058 198.934 385.058 195.814V195.094C385.058 191.974 385.678 189.274 386.918 186.994C388.158 184.674 389.898 182.894 392.138 181.654C394.378 180.374 396.978 179.734 399.938 179.734C402.858 179.734 405.398 180.394 407.558 181.714C409.718 182.994 411.398 184.794 412.598 187.114C413.798 189.394 414.398 192.054 414.398 195.094V197.674H392.738C392.818 199.714 393.578 201.374 395.018 202.654C396.458 203.934 398.218 204.574 400.298 204.574C402.418 204.574 403.978 204.114 404.978 203.194C405.978 202.274 406.738 201.254 407.258 200.134L413.438 203.374C412.878 204.414 412.058 205.554 410.978 206.794C409.938 207.994 408.538 209.034 406.778 209.914C405.018 210.754 402.778 211.174 400.058 211.174ZM392.798 192.034H406.718C406.558 190.314 405.858 188.934 404.618 187.894C403.418 186.854 401.838 186.334 399.878 186.334C397.838 186.334 396.218 186.854 395.018 187.894C393.818 188.934 393.078 190.314 392.798 192.034ZM432.327 211.174C429.967 211.174 427.747 210.594 425.667 209.434C423.627 208.234 421.987 206.494 420.747 204.214C419.507 201.934 418.887 199.174 418.887 195.934V194.974C418.887 191.734 419.507 188.974 420.747 186.694C421.987 184.414 423.627 182.694 425.667 181.534C427.707 180.334 429.927 179.734 432.327 179.734C434.127 179.734 435.627 179.954 436.827 180.394C438.067 180.794 439.067 181.314 439.827 181.954C440.587 182.594 441.167 183.274 441.567 183.994H442.647V168.334H450.207V210.334H442.767V206.734H441.687C441.007 207.854 439.947 208.874 438.507 209.794C437.107 210.714 435.047 211.174 432.327 211.174ZM434.607 204.574C436.927 204.574 438.867 203.834 440.427 202.354C441.987 200.834 442.767 198.634 442.767 195.754V195.154C442.767 192.274 441.987 190.094 440.427 188.614C438.907 187.094 436.967 186.334 434.607 186.334C432.287 186.334 430.347 187.094 428.787 188.614C427.227 190.094 426.447 192.274 426.447 195.154V195.754C426.447 198.634 427.227 200.834 428.787 202.354C430.347 203.834 432.287 204.574 434.607 204.574ZM457.668 198.454V191.614H475.428V198.454H457.668ZM494.227 210.814C491.907 210.814 489.867 210.294 488.107 209.254C486.387 208.174 485.047 206.694 484.087 204.814C483.127 202.934 482.647 200.774 482.647 198.334V180.574H490.207V197.734C490.207 199.974 490.747 201.654 491.827 202.774C492.947 203.894 494.527 204.454 496.567 204.454C498.887 204.454 500.687 203.694 501.967 202.174C503.247 200.614 503.887 198.454 503.887 195.694V180.574H511.447V210.334H504.007V206.434H502.927C502.447 207.434 501.547 208.414 500.227 209.374C498.907 210.334 496.907 210.814 494.227 210.814ZM519.059 210.334V180.574H526.619V210.334H519.059ZM522.839 177.094C521.479 177.094 520.319 176.654 519.359 175.774C518.439 174.894 517.979 173.734 517.979 172.294C517.979 170.854 518.439 169.694 519.359 168.814C520.319 167.934 521.479 167.494 522.839 167.494C524.239 167.494 525.399 167.934 526.319 168.814C527.239 169.694 527.699 170.854 527.699 172.294C527.699 173.734 527.239 174.894 526.319 175.774C525.399 176.654 524.239 177.094 522.839 177.094Z" fill="white"/>
<path d="M114.336 288.334V265.934H117.792V275.534H127.2V265.934H130.656V288.334H127.2V278.67H117.792V288.334H114.336ZM142.664 288.782C141.064 288.782 139.667 288.451 138.472 287.79C137.277 287.107 136.339 286.158 135.656 284.942C134.995 283.704 134.664 282.275 134.664 280.654V280.27C134.664 278.627 134.995 277.198 135.656 275.982C136.317 274.744 137.235 273.795 138.408 273.134C139.603 272.451 140.979 272.11 142.536 272.11C144.051 272.11 145.373 272.451 146.504 273.134C147.656 273.795 148.552 274.723 149.192 275.918C149.832 277.112 150.152 278.51 150.152 280.11V281.358H138.024C138.067 282.744 138.525 283.854 139.4 284.686C140.296 285.496 141.405 285.902 142.728 285.902C143.965 285.902 144.893 285.624 145.512 285.07C146.152 284.515 146.643 283.875 146.984 283.15L149.704 284.558C149.405 285.155 148.968 285.784 148.392 286.446C147.837 287.107 147.101 287.662 146.184 288.11C145.267 288.558 144.093 288.782 142.664 288.782ZM138.056 278.83H146.792C146.707 277.635 146.28 276.707 145.512 276.046C144.744 275.363 143.741 275.022 142.504 275.022C141.267 275.022 140.253 275.363 139.464 276.046C138.696 276.707 138.227 277.635 138.056 278.83ZM159.016 288.782C157.885 288.782 156.872 288.59 155.976 288.206C155.101 287.822 154.397 287.256 153.864 286.51C153.352 285.763 153.096 284.856 153.096 283.79C153.096 282.702 153.352 281.806 153.864 281.102C154.397 280.376 155.112 279.832 156.008 279.47C156.925 279.107 157.96 278.926 159.112 278.926H163.912V277.902C163.912 276.984 163.634 276.248 163.08 275.694C162.525 275.139 161.672 274.862 160.52 274.862C159.389 274.862 158.525 275.128 157.928 275.662C157.33 276.195 156.936 276.888 156.744 277.742L153.672 276.75C153.928 275.896 154.333 275.128 154.888 274.446C155.464 273.742 156.221 273.176 157.16 272.75C158.098 272.323 159.229 272.11 160.552 272.11C162.6 272.11 164.21 272.632 165.384 273.678C166.557 274.723 167.144 276.206 167.144 278.126V284.622C167.144 285.262 167.442 285.582 168.04 285.582H169.384V288.334H166.92C166.173 288.334 165.565 288.142 165.096 287.758C164.626 287.374 164.392 286.851 164.392 286.19V286.094H163.912C163.741 286.414 163.485 286.787 163.144 287.214C162.802 287.64 162.301 288.014 161.64 288.334C160.978 288.632 160.104 288.782 159.016 288.782ZM159.496 286.062C160.818 286.062 161.885 285.688 162.696 284.942C163.506 284.174 163.912 283.128 163.912 281.806V281.486H159.304C158.429 281.486 157.725 281.678 157.192 282.062C156.658 282.424 156.391 282.968 156.391 283.694C156.391 284.419 156.669 284.995 157.224 285.422C157.778 285.848 158.536 286.062 159.496 286.062ZM178.741 288.782C177.44 288.782 176.235 288.462 175.125 287.822C174.016 287.182 173.12 286.264 172.437 285.07C171.776 283.854 171.445 282.392 171.445 280.686V280.206C171.445 278.52 171.776 277.07 172.437 275.854C173.099 274.638 173.984 273.71 175.093 273.07C176.203 272.43 177.419 272.11 178.741 272.11C179.765 272.11 180.619 272.238 181.301 272.494C182.005 272.75 182.581 273.08 183.029 273.486C183.477 273.87 183.819 274.275 184.053 274.702H184.565V265.934H187.861V288.334H184.629V286.094H184.117C183.712 286.776 183.093 287.395 182.261 287.95C181.451 288.504 180.277 288.782 178.741 288.782ZM179.669 285.902C181.099 285.902 182.272 285.443 183.189 284.526C184.128 283.608 184.597 282.296 184.597 280.59V280.302C184.597 278.616 184.139 277.315 183.221 276.398C182.304 275.48 181.12 275.022 179.669 275.022C178.261 275.022 177.088 275.48 176.149 276.398C175.232 277.315 174.773 278.616 174.773 280.302V280.59C174.773 282.296 175.232 283.608 176.149 284.526C177.088 285.443 178.261 285.902 179.669 285.902ZM192.713 288.334V265.934H196.009V288.334H192.713ZM208.133 288.782C206.533 288.782 205.135 288.451 203.941 287.79C202.746 287.107 201.807 286.158 201.125 284.942C200.463 283.704 200.133 282.275 200.133 280.654V280.27C200.133 278.627 200.463 277.198 201.125 275.982C201.786 274.744 202.703 273.795 203.877 273.134C205.071 272.451 206.447 272.11 208.005 272.11C209.519 272.11 210.842 272.451 211.973 273.134C213.125 273.795 214.021 274.723 214.661 275.918C215.301 277.112 215.621 278.51 215.621 280.11V281.358H203.493C203.535 282.744 203.994 283.854 204.869 284.686C205.765 285.496 206.874 285.902 208.197 285.902C209.434 285.902 210.362 285.624 210.981 285.07C211.621 284.515 212.111 283.875 212.453 283.15L215.173 284.558C214.874 285.155 214.437 285.784 213.861 286.446C213.306 287.107 212.57 287.662 211.653 288.11C210.735 288.558 209.562 288.782 208.133 288.782ZM203.525 278.83H212.261C212.175 277.635 211.749 276.707 210.981 276.046C210.213 275.363 209.21 275.022 207.973 275.022C206.735 275.022 205.722 275.363 204.933 276.046C204.165 276.707 203.695 277.635 203.525 278.83ZM226.052 288.782C224.047 288.782 222.383 288.334 221.06 287.438C219.738 286.542 218.927 285.187 218.628 283.374L221.7 282.638C221.871 283.512 222.159 284.206 222.564 284.718C222.97 285.23 223.471 285.592 224.068 285.806C224.687 286.019 225.348 286.126 226.052 286.126C227.098 286.126 227.898 285.923 228.452 285.518C229.028 285.112 229.316 284.59 229.316 283.95C229.316 283.31 229.05 282.84 228.516 282.542C227.983 282.243 227.194 281.998 226.148 281.806L225.06 281.614C223.994 281.422 223.023 281.144 222.148 280.782C221.274 280.419 220.58 279.918 220.068 279.278C219.556 278.638 219.3 277.816 219.3 276.814C219.3 275.32 219.855 274.168 220.964 273.358C222.074 272.526 223.546 272.11 225.38 272.11C227.151 272.11 228.602 272.515 229.732 273.326C230.884 274.115 231.631 275.192 231.972 276.558L228.9 277.422C228.708 276.462 228.303 275.79 227.684 275.406C227.066 275 226.298 274.798 225.38 274.798C224.484 274.798 223.78 274.968 223.268 275.31C222.756 275.63 222.5 276.088 222.5 276.686C222.5 277.326 222.746 277.795 223.236 278.094C223.748 278.392 224.431 278.616 225.284 278.766L226.404 278.958C227.535 279.15 228.57 279.416 229.508 279.758C230.447 280.099 231.183 280.59 231.716 281.23C232.271 281.87 232.548 282.723 232.548 283.79C232.548 285.368 231.962 286.595 230.788 287.47C229.615 288.344 228.036 288.782 226.052 288.782ZM242.865 288.782C240.859 288.782 239.195 288.334 237.873 287.438C236.55 286.542 235.739 285.187 235.441 283.374L238.513 282.638C238.683 283.512 238.971 284.206 239.377 284.718C239.782 285.23 240.283 285.592 240.881 285.806C241.499 286.019 242.161 286.126 242.865 286.126C243.91 286.126 244.71 285.923 245.265 285.518C245.841 285.112 246.129 284.59 246.129 283.95C246.129 283.31 245.862 282.84 245.329 282.542C244.795 282.243 244.006 281.998 242.961 281.806L241.873 281.614C240.806 281.422 239.835 281.144 238.961 280.782C238.086 280.419 237.393 279.918 236.881 279.278C236.369 278.638 236.113 277.816 236.113 276.814C236.113 275.32 236.667 274.168 237.777 273.358C238.886 272.526 240.358 272.11 242.193 272.11C243.963 272.11 245.414 272.515 246.545 273.326C247.697 274.115 248.443 275.192 248.785 276.558L245.713 277.422C245.521 276.462 245.115 275.79 244.497 275.406C243.878 275 243.11 274.798 242.193 274.798C241.297 274.798 240.593 274.968 240.081 275.31C239.569 275.63 239.313 276.088 239.313 276.686C239.313 277.326 239.558 277.795 240.049 278.094C240.561 278.392 241.243 278.616 242.097 278.766L243.217 278.958C244.347 279.15 245.382 279.416 246.321 279.758C247.259 280.099 247.995 280.59 248.529 281.23C249.083 281.87 249.361 282.723 249.361 283.79C249.361 285.368 248.774 286.595 247.601 287.47C246.427 288.344 244.849 288.782 242.865 288.782ZM261.274 288.334V265.934H270.682C272.068 265.934 273.284 266.179 274.33 266.67C275.396 267.139 276.218 267.822 276.794 268.718C277.391 269.614 277.69 270.68 277.69 271.918V272.27C277.69 273.678 277.348 274.808 276.666 275.662C276.004 276.494 275.194 277.08 274.234 277.422V277.934C275.044 277.976 275.695 278.254 276.186 278.766C276.676 279.256 276.922 279.971 276.922 280.91V288.334H273.434V281.39C273.434 280.814 273.284 280.355 272.986 280.014C272.687 279.672 272.207 279.502 271.546 279.502H264.73V288.334H261.274ZM264.73 276.366H270.298C271.535 276.366 272.495 276.056 273.178 275.438C273.86 274.798 274.202 273.934 274.202 272.846V272.59C274.202 271.502 273.86 270.648 273.178 270.03C272.516 269.39 271.556 269.07 270.298 269.07H264.73V276.366ZM288.82 288.782C287.22 288.782 285.823 288.451 284.628 287.79C283.434 287.107 282.495 286.158 281.812 284.942C281.151 283.704 280.82 282.275 280.82 280.654V280.27C280.82 278.627 281.151 277.198 281.812 275.982C282.474 274.744 283.391 273.795 284.564 273.134C285.759 272.451 287.135 272.11 288.692 272.11C290.207 272.11 291.53 272.451 292.66 273.134C293.812 273.795 294.708 274.723 295.348 275.918C295.988 277.112 296.308 278.51 296.308 280.11V281.358H284.18C284.223 282.744 284.682 283.854 285.556 284.686C286.452 285.496 287.562 285.902 288.884 285.902C290.122 285.902 291.05 285.624 291.668 285.07C292.308 284.515 292.799 283.875 293.14 283.15L295.86 284.558C295.562 285.155 295.124 285.784 294.548 286.446C293.994 287.107 293.258 287.662 292.34 288.11C291.423 288.558 290.25 288.782 288.82 288.782ZM284.212 278.83H292.948C292.863 277.635 292.436 276.707 291.668 276.046C290.9 275.363 289.898 275.022 288.66 275.022C287.423 275.022 286.41 275.363 285.62 276.046C284.852 276.707 284.383 277.635 284.212 278.83ZM305.172 288.782C304.041 288.782 303.028 288.59 302.132 288.206C301.257 287.822 300.553 287.256 300.02 286.51C299.508 285.763 299.252 284.856 299.252 283.79C299.252 282.702 299.508 281.806 300.02 281.102C300.553 280.376 301.268 279.832 302.164 279.47C303.081 279.107 304.116 278.926 305.268 278.926H310.068V277.902C310.068 276.984 309.79 276.248 309.236 275.694C308.681 275.139 307.828 274.862 306.676 274.862C305.545 274.862 304.681 275.128 304.084 275.662C303.486 276.195 303.092 276.888 302.9 277.742L299.828 276.75C300.084 275.896 300.489 275.128 301.044 274.446C301.62 273.742 302.377 273.176 303.316 272.75C304.254 272.323 305.385 272.11 306.708 272.11C308.756 272.11 310.366 272.632 311.54 273.678C312.713 274.723 313.3 276.206 313.3 278.126V284.622C313.3 285.262 313.598 285.582 314.196 285.582H315.54V288.334H313.076C312.329 288.334 311.721 288.142 311.252 287.758C310.782 287.374 310.548 286.851 310.548 286.19V286.094H310.068C309.897 286.414 309.641 286.787 309.3 287.214C308.958 287.64 308.457 288.014 307.796 288.334C307.134 288.632 306.26 288.782 305.172 288.782ZM305.652 286.062C306.974 286.062 308.041 285.688 308.852 284.942C309.662 284.174 310.068 283.128 310.068 281.806V281.486H305.46C304.585 281.486 303.881 281.678 303.348 282.062C302.814 282.424 302.548 282.968 302.548 283.694C302.548 284.419 302.825 284.995 303.38 285.422C303.934 285.848 304.692 286.062 305.652 286.062ZM325.698 288.782C324.183 288.782 322.807 288.462 321.57 287.822C320.354 287.182 319.383 286.254 318.658 285.038C317.954 283.822 317.602 282.36 317.602 280.654V280.238C317.602 278.531 317.954 277.08 318.658 275.886C319.383 274.67 320.354 273.742 321.57 273.102C322.807 272.44 324.183 272.11 325.698 272.11C327.212 272.11 328.503 272.387 329.57 272.942C330.636 273.496 331.49 274.232 332.13 275.15C332.791 276.067 333.218 277.08 333.41 278.19L330.21 278.862C330.103 278.158 329.879 277.518 329.538 276.942C329.196 276.366 328.716 275.907 328.098 275.566C327.479 275.224 326.7 275.054 325.762 275.054C324.844 275.054 324.012 275.267 323.266 275.694C322.54 276.099 321.964 276.696 321.538 277.486C321.111 278.254 320.898 279.192 320.898 280.302V280.59C320.898 281.699 321.111 282.648 321.538 283.438C321.964 284.227 322.54 284.824 323.266 285.23C324.012 285.635 324.844 285.838 325.762 285.838C327.148 285.838 328.204 285.486 328.93 284.782C329.655 284.056 330.114 283.139 330.306 282.03L333.506 282.766C333.25 283.854 332.791 284.856 332.13 285.774C331.49 286.691 330.636 287.427 329.57 287.982C328.503 288.515 327.212 288.782 325.698 288.782ZM342.633 288.334C341.673 288.334 340.905 288.046 340.329 287.47C339.775 286.894 339.497 286.126 339.497 285.166V275.342H335.145V272.558H339.497V267.342H342.793V272.558H347.497V275.342H342.793V284.59C342.793 285.23 343.092 285.55 343.689 285.55H346.985V288.334H342.633ZM367.814 288.782C366.043 288.782 364.518 288.462 363.238 287.822C361.979 287.182 360.998 286.264 360.294 285.07C359.611 283.854 359.27 282.382 359.27 280.654V265.934H362.758V280.75C362.758 282.328 363.195 283.544 364.07 284.398C364.944 285.251 366.192 285.678 367.814 285.678C369.435 285.678 370.683 285.251 371.558 284.398C372.432 283.544 372.87 282.328 372.87 280.75V265.934H376.326V280.654C376.326 282.382 375.984 283.854 375.302 285.07C374.619 286.264 373.638 287.182 372.358 287.822C371.078 288.462 369.563 288.782 367.814 288.782ZM380.836 288.334V265.934H384.292V288.334H380.836ZM397.213 288.334V265.934H400.509V288.334H397.213ZM405.401 288.334V272.558H408.697V288.334H405.401ZM407.065 270.414C406.425 270.414 405.881 270.211 405.433 269.806C405.006 269.379 404.793 268.835 404.793 268.174C404.793 267.512 405.006 266.979 405.433 266.574C405.881 266.147 406.425 265.934 407.065 265.934C407.726 265.934 408.27 266.147 408.697 266.574C409.123 266.979 409.337 267.512 409.337 268.174C409.337 268.835 409.123 269.379 408.697 269.806C408.27 270.211 407.726 270.414 407.065 270.414ZM422.708 288.782C421.172 288.782 419.988 288.504 419.156 287.95C418.346 287.395 417.738 286.776 417.332 286.094H416.82V288.334H413.588V265.934H416.884V274.702H417.396C417.652 274.275 417.994 273.87 418.42 273.486C418.847 273.08 419.412 272.75 420.116 272.494C420.82 272.238 421.684 272.11 422.708 272.11C424.031 272.11 425.247 272.43 426.356 273.07C427.466 273.71 428.351 274.638 429.012 275.854C429.674 277.07 430.004 278.52 430.004 280.206V280.686C430.004 282.392 429.663 283.854 428.98 285.07C428.319 286.264 427.434 287.182 426.324 287.822C425.236 288.462 424.031 288.782 422.708 288.782ZM421.748 285.902C423.178 285.902 424.351 285.443 425.268 284.526C426.207 283.608 426.676 282.296 426.676 280.59V280.302C426.676 278.616 426.218 277.315 425.3 276.398C424.383 275.48 423.199 275.022 421.748 275.022C420.34 275.022 419.167 275.48 418.228 276.398C417.311 277.315 416.852 278.616 416.852 280.302V280.59C416.852 282.296 417.311 283.608 418.228 284.526C419.167 285.443 420.34 285.902 421.748 285.902ZM434.088 288.334V272.558H437.32V274.414H437.832C438.088 273.752 438.494 273.272 439.048 272.974C439.624 272.654 440.328 272.494 441.16 272.494H443.048V275.47H441.032C439.966 275.47 439.091 275.768 438.408 276.366C437.726 276.942 437.384 277.838 437.384 279.054V288.334H434.088ZM450.922 288.782C449.791 288.782 448.778 288.59 447.882 288.206C447.007 287.822 446.303 287.256 445.77 286.51C445.258 285.763 445.002 284.856 445.002 283.79C445.002 282.702 445.258 281.806 445.77 281.102C446.303 280.376 447.018 279.832 447.914 279.47C448.831 279.107 449.866 278.926 451.018 278.926H455.818V277.902C455.818 276.984 455.54 276.248 454.986 275.694C454.431 275.139 453.578 274.862 452.426 274.862C451.295 274.862 450.431 275.128 449.834 275.662C449.236 276.195 448.842 276.888 448.65 277.742L445.578 276.75C445.834 275.896 446.239 275.128 446.794 274.446C447.37 273.742 448.127 273.176 449.066 272.75C450.004 272.323 451.135 272.11 452.458 272.11C454.506 272.11 456.116 272.632 457.29 273.678C458.463 274.723 459.05 276.206 459.05 278.126V284.622C459.05 285.262 459.348 285.582 459.946 285.582H461.29V288.334H458.826C458.079 288.334 457.471 288.142 457.002 287.758C456.532 287.374 456.298 286.851 456.298 286.19V286.094H455.818C455.647 286.414 455.391 286.787 455.05 287.214C454.708 287.64 454.207 288.014 453.546 288.334C452.884 288.632 452.01 288.782 450.922 288.782ZM451.402 286.062C452.724 286.062 453.791 285.688 454.602 284.942C455.412 284.174 455.818 283.128 455.818 281.806V281.486H451.21C450.335 281.486 449.631 281.678 449.098 282.062C448.564 282.424 448.298 282.968 448.298 283.694C448.298 284.419 448.575 284.995 449.13 285.422C449.684 285.848 450.442 286.062 451.402 286.062ZM464.495 288.334V272.558H467.727V274.414H468.239C468.495 273.752 468.9 273.272 469.455 272.974C470.031 272.654 470.735 272.494 471.567 272.494H473.455V275.47H471.439C470.372 275.47 469.497 275.768 468.815 276.366C468.132 276.942 467.791 277.838 467.791 279.054V288.334H464.495ZM478.694 294.734V291.854H487.494C488.091 291.854 488.39 291.534 488.39 290.894V286.03H487.878C487.686 286.456 487.387 286.872 486.982 287.278C486.598 287.662 486.075 287.982 485.414 288.238C484.752 288.494 483.92 288.622 482.918 288.622C481.723 288.622 480.656 288.355 479.718 287.822C478.779 287.288 478.043 286.531 477.51 285.55C476.976 284.568 476.71 283.406 476.71 282.062V272.558H480.006V281.806C480.006 283.171 480.347 284.184 481.03 284.846C481.712 285.486 482.662 285.806 483.878 285.806C485.222 285.806 486.299 285.358 487.11 284.462C487.942 283.566 488.358 282.264 488.358 280.558V272.558H491.654V291.566C491.654 292.526 491.366 293.294 490.79 293.87C490.235 294.446 489.467 294.734 488.486 294.734H478.694ZM498.51 288.782C497.763 288.782 497.134 288.536 496.622 288.046C496.131 287.555 495.886 286.926 495.886 286.158C495.886 285.39 496.131 284.771 496.622 284.302C497.134 283.811 497.763 283.566 498.51 283.566C499.256 283.566 499.875 283.811 500.366 284.302C500.878 284.792 501.134 285.411 501.134 286.158C501.134 286.926 500.878 287.555 500.366 288.046C499.875 288.536 499.256 288.782 498.51 288.782Z" fill="#849DFF"/>
<rect x="121.616" y="418.95" width="60.1006" height="60.1006" rx="4.07562" fill="#3E63DD"/>
<path d="M134.703 442.485C133.698 442.485 132.794 442.282 131.993 441.874C131.191 441.467 130.56 440.876 130.098 440.101C129.636 439.327 129.405 438.396 129.405 437.309V436.983C129.405 435.897 129.636 434.966 130.098 434.192C130.56 433.417 131.191 432.826 131.993 432.419C132.794 432.011 133.698 431.807 134.703 431.807C135.709 431.807 136.612 432.011 137.414 432.419C138.215 432.826 138.847 433.417 139.309 434.192C139.771 434.966 140.002 435.897 140.002 436.983V437.309C140.002 438.396 139.771 439.327 139.309 440.101C138.847 440.876 138.215 441.467 137.414 441.874C136.612 442.282 135.709 442.485 134.703 442.485ZM134.703 440.203C135.491 440.203 136.143 439.952 136.66 439.449C137.176 438.933 137.434 438.199 137.434 437.248V437.044C137.434 436.094 137.176 435.367 136.66 434.864C136.157 434.348 135.505 434.09 134.703 434.09C133.915 434.09 133.263 434.348 132.747 434.864C132.231 435.367 131.973 436.094 131.973 437.044V437.248C131.973 438.199 132.231 438.933 132.747 439.449C133.263 439.952 133.915 440.203 134.703 440.203Z" fill="white"/>
<path d="M141.353 446.276V432.093H143.88V433.315H144.246C144.477 432.921 144.837 432.575 145.326 432.276C145.815 431.964 146.515 431.807 147.425 431.807C148.24 431.807 148.994 432.011 149.687 432.419C150.38 432.813 150.937 433.397 151.358 434.171C151.779 434.946 151.99 435.883 151.99 436.983V437.309C151.99 438.41 151.779 439.347 151.358 440.122C150.937 440.896 150.38 441.487 149.687 441.894C148.994 442.288 148.24 442.485 147.425 442.485C146.814 442.485 146.298 442.411 145.877 442.261C145.469 442.125 145.136 441.949 144.878 441.731C144.634 441.5 144.437 441.27 144.287 441.039H143.92V446.276H141.353ZM146.651 440.244C147.453 440.244 148.111 439.993 148.628 439.49C149.157 438.974 149.422 438.226 149.422 437.248V437.044C149.422 436.066 149.157 435.326 148.628 434.823C148.098 434.307 147.439 434.049 146.651 434.049C145.863 434.049 145.204 434.307 144.674 434.823C144.144 435.326 143.88 436.066 143.88 437.044V437.248C143.88 438.226 144.144 438.974 144.674 439.49C145.204 439.993 145.863 440.244 146.651 440.244Z" fill="white"/>
<path d="M153.288 438.165V435.842H159.32V438.165H153.288Z" fill="white"/>
<path d="M130.261 468.634V449.615H142.488V452.875H133.847V457.413H141.727V460.673H133.847V465.374H142.651V468.634H130.261Z" fill="white"/>
<path d="M143.947 468.634V449.615H150.767L154.544 466.189H155.033V449.615H158.565V468.634H151.745L147.968 452.06H147.479V468.634H143.947Z" fill="white"/>
<path d="M165.193 468.634V452.875H159.65V449.615H174.322V452.875H168.779V468.634H165.193Z" fill="white"/>
<path d="M191.74 444.237V429.973H194.43V441.792H200.951V444.237H191.74Z" fill="#F0F4FF"/>
<path d="M199.902 436.229V434.843H200.696C201.321 434.843 201.634 434.53 201.634 433.906V433.253H201.287C200.744 433.253 200.289 433.09 199.922 432.764C199.569 432.438 199.392 432.024 199.392 431.521C199.392 430.978 199.569 430.536 199.922 430.197C200.289 429.857 200.744 429.687 201.287 429.687C201.844 429.687 202.299 429.864 202.653 430.217C203.006 430.557 203.183 431.019 203.183 431.603V433.946C203.183 435.468 202.422 436.229 200.9 436.229H199.902Z" fill="#F0F4FF"/>
<path d="M204.608 444.237V429.973H213.778V432.418H207.298V435.821H213.207V438.266H207.298V441.792H213.9V444.237H204.608Z" fill="#F0F4FF"/>
<path d="M214.872 444.237V429.973H219.987L222.82 442.403H223.186V429.973H225.836V444.237H220.721L217.888 431.807H217.521V444.237H214.872Z" fill="#F0F4FF"/>
<path d="M230.806 444.237V432.418H226.649V429.973H237.653V432.418H233.496V444.237H230.806Z" fill="#F0F4FF"/>
<path d="M196.631 464.522C195.626 464.522 194.722 464.319 193.921 463.911C193.119 463.503 192.488 462.913 192.026 462.138C191.564 461.364 191.333 460.433 191.333 459.346V459.02C191.333 457.934 191.564 457.003 192.026 456.229C192.488 455.454 193.119 454.863 193.921 454.456C194.722 454.048 195.626 453.844 196.631 453.844C197.636 453.844 198.54 454.048 199.341 454.456C200.143 454.863 200.775 455.454 201.236 456.229C201.698 457.003 201.929 457.934 201.929 459.02V459.346C201.929 460.433 201.698 461.364 201.236 462.138C200.775 462.913 200.143 463.503 199.341 463.911C198.54 464.319 197.636 464.522 196.631 464.522ZM196.631 462.24C197.419 462.24 198.071 461.989 198.587 461.486C199.104 460.97 199.362 460.236 199.362 459.285V459.082C199.362 458.131 199.104 457.404 198.587 456.901C198.085 456.385 197.433 456.127 196.631 456.127C195.843 456.127 195.191 456.385 194.675 456.901C194.159 457.404 193.9 458.131 193.9 459.082V459.285C193.9 460.236 194.159 460.97 194.675 461.486C195.191 461.989 195.843 462.24 196.631 462.24Z" fill="#F0F4FF"/>
<path d="M203.28 468.313V454.13H205.807V455.352H206.174C206.405 454.958 206.765 454.612 207.254 454.313C207.743 454.001 208.443 453.844 209.353 453.844C210.168 453.844 210.922 454.048 211.615 454.456C212.308 454.85 212.865 455.434 213.286 456.208C213.707 456.983 213.918 457.92 213.918 459.02V459.346C213.918 460.447 213.707 461.384 213.286 462.159C212.865 462.933 212.308 463.524 211.615 463.931C210.922 464.325 210.168 464.522 209.353 464.522C208.742 464.522 208.225 464.448 207.804 464.298C207.397 464.162 207.064 463.986 206.806 463.768C206.561 463.537 206.364 463.306 206.215 463.076H205.848V468.313H203.28ZM208.579 462.281C209.38 462.281 210.039 462.029 210.555 461.527C211.085 461.011 211.35 460.263 211.35 459.285V459.082C211.35 458.103 211.085 457.363 210.555 456.86C210.025 456.344 209.367 456.086 208.579 456.086C207.791 456.086 207.132 456.344 206.602 456.86C206.072 457.363 205.807 458.103 205.807 459.082V459.285C205.807 460.263 206.072 461.011 206.602 461.527C207.132 462.029 207.791 462.281 208.579 462.281Z" fill="#F0F4FF"/>
<path d="M219.862 464.522C218.856 464.522 217.967 464.312 217.192 463.891C216.431 463.456 215.834 462.851 215.399 462.077C214.978 461.289 214.767 460.365 214.767 459.306V459.061C214.767 458.001 214.978 457.084 215.399 456.31C215.82 455.522 216.411 454.918 217.172 454.497C217.933 454.062 218.816 453.844 219.821 453.844C220.813 453.844 221.675 454.069 222.409 454.517C223.143 454.952 223.713 455.563 224.121 456.351C224.528 457.125 224.732 458.029 224.732 459.061V459.937H217.376C217.403 460.63 217.661 461.194 218.15 461.629C218.639 462.063 219.237 462.281 219.943 462.281C220.663 462.281 221.193 462.125 221.533 461.812C221.872 461.5 222.13 461.153 222.307 460.773L224.406 461.873C224.216 462.226 223.937 462.614 223.57 463.035C223.217 463.442 222.742 463.796 222.144 464.094C221.546 464.38 220.785 464.522 219.862 464.522ZM217.396 458.022H222.124C222.069 457.438 221.832 456.969 221.41 456.616C221.003 456.263 220.466 456.086 219.801 456.086C219.108 456.086 218.558 456.263 218.15 456.616C217.742 456.969 217.491 457.438 217.396 458.022Z" fill="#F0F4FF"/>
<path d="M225.998 464.237V454.13H228.525V455.454H228.892C229.055 455.101 229.361 454.768 229.809 454.456C230.257 454.13 230.937 453.967 231.847 453.967C232.635 453.967 233.321 454.15 233.905 454.517C234.503 454.87 234.965 455.366 235.291 456.004C235.617 456.629 235.78 457.363 235.78 458.205V464.237H233.212V458.409C233.212 457.648 233.022 457.078 232.642 456.697C232.275 456.317 231.745 456.127 231.052 456.127C230.264 456.127 229.653 456.392 229.218 456.921C228.783 457.438 228.566 458.165 228.566 459.102V464.237H225.998Z" fill="#F0F4FF"/>
<path d="M245.889 464.522C244.572 464.522 243.492 464.237 242.649 463.666C241.807 463.096 241.298 462.281 241.121 461.221L243.485 460.61C243.58 461.085 243.736 461.459 243.954 461.731C244.185 462.002 244.463 462.199 244.789 462.322C245.129 462.43 245.495 462.485 245.889 462.485C246.487 462.485 246.929 462.383 247.214 462.179C247.499 461.962 247.642 461.697 247.642 461.384C247.642 461.072 247.506 460.834 247.234 460.671C246.963 460.494 246.528 460.352 245.93 460.243L245.36 460.141C244.653 460.005 244.008 459.822 243.424 459.591C242.84 459.346 242.371 459.014 242.018 458.592C241.664 458.171 241.488 457.628 241.488 456.962C241.488 455.957 241.855 455.189 242.588 454.66C243.322 454.116 244.286 453.844 245.482 453.844C246.609 453.844 247.547 454.096 248.294 454.598C249.041 455.101 249.53 455.76 249.761 456.575L247.377 457.309C247.268 456.792 247.044 456.426 246.705 456.208C246.379 455.991 245.971 455.882 245.482 455.882C244.993 455.882 244.619 455.971 244.361 456.147C244.103 456.31 243.974 456.541 243.974 456.84C243.974 457.166 244.11 457.411 244.382 457.574C244.653 457.723 245.02 457.838 245.482 457.92L246.052 458.022C246.813 458.158 247.499 458.341 248.111 458.572C248.736 458.789 249.225 459.109 249.578 459.53C249.945 459.937 250.128 460.494 250.128 461.201C250.128 462.26 249.741 463.082 248.966 463.666C248.206 464.237 247.18 464.522 245.889 464.522Z" fill="#F0F4FF"/>
<path d="M256.168 464.522C255.163 464.522 254.26 464.319 253.458 463.911C252.657 463.503 252.025 462.913 251.563 462.138C251.101 461.364 250.87 460.433 250.87 459.346V459.02C250.87 457.934 251.101 457.003 251.563 456.229C252.025 455.454 252.657 454.863 253.458 454.456C254.26 454.048 255.163 453.844 256.168 453.844C257.174 453.844 258.077 454.048 258.879 454.456C259.68 454.863 260.312 455.454 260.774 456.229C261.236 457.003 261.466 457.934 261.466 459.02V459.346C261.466 460.433 261.236 461.364 260.774 462.138C260.312 462.913 259.68 463.503 258.879 463.911C258.077 464.319 257.174 464.522 256.168 464.522ZM256.168 462.24C256.956 462.24 257.608 461.989 258.125 461.486C258.641 460.97 258.899 460.236 258.899 459.285V459.082C258.899 458.131 258.641 457.404 258.125 456.901C257.622 456.385 256.97 456.127 256.168 456.127C255.38 456.127 254.728 456.385 254.212 456.901C253.696 457.404 253.438 458.131 253.438 459.082V459.285C253.438 460.236 253.696 460.97 254.212 461.486C254.728 461.989 255.38 462.24 256.168 462.24Z" fill="#F0F4FF"/>
<path d="M266.669 464.4C265.881 464.4 265.188 464.223 264.59 463.87C264.006 463.503 263.551 463.001 263.225 462.362C262.899 461.724 262.736 460.99 262.736 460.162V454.13H265.304V459.958C265.304 460.719 265.487 461.289 265.854 461.669C266.234 462.05 266.771 462.24 267.464 462.24C268.252 462.24 268.863 461.982 269.298 461.466C269.732 460.936 269.95 460.202 269.95 459.265V454.13H272.517V464.237H269.991V462.913H269.624C269.461 463.252 269.155 463.585 268.707 463.911C268.258 464.237 267.579 464.4 266.669 464.4Z" fill="#F0F4FF"/>
<path d="M274.356 464.237V454.13H276.883V455.271H277.249C277.399 454.863 277.643 454.564 277.983 454.374C278.336 454.184 278.744 454.089 279.206 454.089H280.428V456.371H279.165C278.513 456.371 277.976 456.548 277.555 456.901C277.134 457.241 276.923 457.771 276.923 458.491V464.237H274.356Z" fill="#F0F4FF"/>
<path d="M285.806 464.522C284.828 464.522 283.938 464.319 283.137 463.911C282.349 463.503 281.724 462.913 281.262 462.138C280.8 461.364 280.569 460.426 280.569 459.326V459.041C280.569 457.94 280.8 457.003 281.262 456.229C281.724 455.454 282.349 454.863 283.137 454.456C283.938 454.048 284.828 453.844 285.806 453.844C286.771 453.844 287.599 454.014 288.292 454.354C288.985 454.694 289.542 455.162 289.963 455.76C290.398 456.344 290.683 457.01 290.819 457.757L288.333 458.287C288.279 457.879 288.156 457.512 287.966 457.186C287.776 456.86 287.504 456.602 287.151 456.412C286.811 456.222 286.383 456.127 285.867 456.127C285.351 456.127 284.882 456.242 284.461 456.473C284.054 456.691 283.728 457.023 283.483 457.472C283.252 457.906 283.137 458.443 283.137 459.082V459.285C283.137 459.924 283.252 460.467 283.483 460.916C283.728 461.35 284.054 461.683 284.461 461.914C284.882 462.131 285.351 462.24 285.867 462.24C286.642 462.24 287.226 462.043 287.62 461.649C288.027 461.242 288.285 460.712 288.394 460.06L290.88 460.651C290.704 461.371 290.398 462.029 289.963 462.627C289.542 463.211 288.985 463.673 288.292 464.013C287.599 464.353 286.771 464.522 285.806 464.522Z" fill="#F0F4FF"/>
<path d="M296.585 464.522C295.579 464.522 294.689 464.312 293.915 463.891C293.154 463.456 292.557 462.851 292.122 462.077C291.701 461.289 291.49 460.365 291.49 459.306V459.061C291.49 458.001 291.701 457.084 292.122 456.31C292.543 455.522 293.134 454.918 293.895 454.497C294.656 454.062 295.539 453.844 296.544 453.844C297.536 453.844 298.398 454.069 299.132 454.517C299.865 454.952 300.436 455.563 300.844 456.351C301.251 457.125 301.455 458.029 301.455 459.061V459.937H294.099C294.126 460.63 294.384 461.194 294.873 461.629C295.362 462.063 295.96 462.281 296.666 462.281C297.386 462.281 297.916 462.125 298.256 461.812C298.595 461.5 298.853 461.153 299.03 460.773L301.129 461.873C300.939 462.226 300.66 462.614 300.293 463.035C299.94 463.442 299.465 463.796 298.867 464.094C298.269 464.38 297.508 464.522 296.585 464.522ZM294.119 458.022H298.847C298.792 457.438 298.554 456.969 298.133 456.616C297.726 456.263 297.189 456.086 296.523 456.086C295.831 456.086 295.28 456.263 294.873 456.616C294.465 456.969 294.214 457.438 294.119 458.022Z" fill="#F0F4FF"/>
<defs>
<linearGradient id="paint0_linear_20_77" x1="-1.90735e-05" y1="640" x2="1280" y2="-2.86102e-05" gradientUnits="userSpaceOnUse">
<stop stop-color="#192140"/>
<stop offset="1" stop-color="#1C274F"/>
</linearGradient>
<clipPath id="clip0_20_77">
<rect width="70" height="70" fill="white" transform="translate(112 154.834)"/>
</clipPath>
</defs>
</svg>
